<?xml version="1.0" encoding="UTF-8" standalone="no"?>
<!-- Generator: Adobe Illustrator 19.0.0, SVG Export Plug-In  -->

<svg
   version="1.1"
   x="0px"
   y="0px"
   width="141.5"
   height="127.4"
   viewBox="0 0 141.5 127.4"
   xml:space="preserve"
   id="svg47296"
   sodipodi:docname="ifpb-logo.svg"
   inkscape:version="1.2.1 (9c6d41e410, 2022-07-14)"
   xmlns:inkscape="http://www.inkscape.org/namespaces/inkscape"
   xmlns:sodipodi="http://sodipodi.sourceforge.net/DTD/sodipodi-0.dtd"
   xmlns="http://www.w3.org/2000/svg"
   xmlns:svg="http://www.w3.org/2000/svg"><sodipodi:namedview
   id="namedview47298"
   pagecolor="#ffffff"
   bordercolor="#000000"
   borderopacity="0.25"
   inkscape:showpageshadow="2"
   inkscape:pageopacity="0.0"
   inkscape:pagecheckerboard="0"
   inkscape:deskcolor="#d1d1d1"
   showgrid="false"
   inkscape:zoom="1.7385208"
   inkscape:cx="66.723391"
   inkscape:cy="64.710185"
   inkscape:window-width="1366"
   inkscape:window-height="702"
   inkscape:window-x="0"
   inkscape:window-y="30"
   inkscape:window-maximized="1"
   inkscape:current-layer="svg47296" />
<style
   type="text/css"
   id="style47272">
	.green{fill:rgb(75, 123, 67);}
	.red{fill:rgb(191, 72, 60);}
</style>
<defs
   id="defs47274">
</defs>
<path
   class="green"
   d="m 77.39033,48.620647 h -9.3 c -0.7,0 -1.2,-0.5 -1.2,-1.2 v -9.5 c 0,-0.7 0.5,-1.2 1.2,-1.2 h 9.3 c 0.7,0 1.2,0.5 1.2,1.2 v 9.5 c 0,0.7 -0.6,1.2 -1.2,1.2 z"
   id="path47276" />
<path
   class="green"
   d="m 91.39033,48.620647 h -9.3 c -0.7,0 -1.2,-0.5 -1.2,-1.2 v -9.5 c 0,-0.7 0.5,-1.2 1.2,-1.2 h 9.3 c 0.7,0 1.2,0.5 1.2,1.2 v 9.5 c 0,0.7 -0.6,1.2 -1.2,1.2 z"
   id="path47278" />
<path
   class="green"
   d="m 63.39033,48.620647 h -9.3 c -0.7,0 -1.2,-0.5 -1.2,-1.2 v -9.5 c 0,-0.7 0.5,-1.2 1.2,-1.2 h 9.3 c 0.7,0 1.2,0.5 1.2,1.2 v 9.5 c 0,0.7 -0.6,1.2 -1.2,1.2 z"
   id="path47280" />
<path
   class="green"
   d="m 77.39033,62.620647 h -9.3 c -0.7,0 -1.2,-0.5 -1.2,-1.2 v -9.5 c 0,-0.7 0.5,-1.2 1.2,-1.2 h 9.3 c 0.7,0 1.2,0.5 1.2,1.2 v 9.5 c 0,0.7 -0.6,1.2 -1.2,1.2 z"
   id="path47282" />
<path
   class="green"
   d="m 63.39033,62.620647 h -9.3 c -0.7,0 -1.2,-0.5 -1.2,-1.2 v -9.5 c 0,-0.7 0.5,-1.2 1.2,-1.2 h 9.3 c 0.7,0 1.2,0.5 1.2,1.2 v 9.5 c 0,0.7 -0.6,1.2 -1.2,1.2 z"
   id="path47284" />
<path
   class="green"
   d="m 77.39033,34.520647 h -9.3 c -0.7,0 -1.2,-0.5 -1.2,-1.2 v -9.5 c 0,-0.7 0.5,-1.2 1.2,-1.2 h 9.3 c 0.7,0 1.2,0.5 1.2,1.2 v 9.5 c 0,0.7 -0.6,1.2 -1.2,1.2 z"
   id="path47286" />
<path
   class="green"
   d="m 63.39033,34.520647 h -9.3 c -0.7,0 -1.2,-0.5 -1.2,-1.2 v -9.5 c 0,-0.7 0.5,-1.2 1.2,-1.2 h 9.3 c 0.7,0 1.2,0.5 1.2,1.2 v 9.5 c 0,0.7 -0.6,1.2 -1.2,1.2 z"
   id="path47288" />
<path
   class="green"
   d="m 77.39033,20.520647 h -9.3 c -0.7,0 -1.2,-0.5 -1.2,-1.2 v -9.4 c 0,-0.7 0.5,-1.2 1.2,-1.2 h 9.3 c 0.7,0 1.2,0.5 1.2,1.2 v 9.5 c 0,0.6 -0.6,1.1 -1.2,1.1 z"
   id="path47290" />
<path
   class="green"
   d="m 91.39033,20.520647 h -9.3 c -0.7,0 -1.2,-0.5 -1.2,-1.2 v -9.4 c 0,-0.7 0.5,-1.2 1.2,-1.2 h 9.3 c 0.7,0 1.2,0.5 1.2,1.2 v 9.5 c 0,0.6 -0.6,1.1 -1.2,1.1 z"
   id="path47292" />
<circle
   class="red"
   cx="58.49033"
   cy="14.620648"
   id="ellipse47294"
   r="6.4000001" />
<text
   xml:space="preserve"
   style="font-style:normal;font-variant:normal;font-weight:bold;font-stretch:normal;font-size:17.3333px;line-height:0.9;font-family:sans-serif;-inkscape-font-specification:'sans-serif, Bold';font-variant-ligatures:normal;font-variant-caps:normal;font-variant-numeric:normal;font-variant-east-asian:normal;fill:#1a1a1a"
   x="70.745422"
   y="82.610535"
   id="text47310"><tspan
     sodipodi:role="line"
     id="tspan47308"
     x="70.745422"
     y="82.610535"
     style="font-style:normal;font-variant:normal;font-weight:bold;font-stretch:normal;font-size:17.3333px;font-family:sans-serif;-inkscape-font-specification:'sans-serif, Bold';font-variant-ligatures:normal;font-variant-caps:normal;font-variant-numeric:normal;font-variant-east-asian:normal;text-align:center;text-anchor:middle;fill:#1a1a1a">INSTITUTO</tspan><tspan
     sodipodi:role="line"
     x="70.745422"
     y="98.210503"
     id="tspan47312"
     style="font-style:normal;font-variant:normal;font-weight:bold;font-stretch:normal;font-size:17.3333px;font-family:sans-serif;-inkscape-font-specification:'sans-serif, Bold';font-variant-ligatures:normal;font-variant-caps:normal;font-variant-numeric:normal;font-variant-east-asian:normal;text-align:center;text-anchor:middle;fill:#1a1a1a">FEDERAL</tspan><tspan
     sodipodi:role="line"
     x="70.745422"
     y="113.81047"
     style="font-style:normal;font-variant:normal;font-weight:normal;font-stretch:normal;font-size:13.3333px;font-family:sans-serif;-inkscape-font-specification:'sans-serif, Normal';font-variant-ligatures:normal;font-variant-caps:normal;font-variant-numeric:normal;font-variant-east-asian:normal;text-align:center;text-anchor:middle;fill:#333333"
     id="tspan47420">PARAÍBA</tspan></text></svg>
